<svg width="32" height="32" viewBox="0 0 32 32" fill="none" xmlns="http://www.w3.org/2000/svg">
<path fill-rule="evenodd" clip-rule="evenodd" d="M6.40039 9.20001L10.4004 6.20001L11.6004 7.80001L7.60039 10.8L6.40039 9.20001ZM23.0004 17C23.0004 20.866 19.8664 24 16.0004 24C12.1344 24 9.00039 20.866 9.00039 17C9.00039 13.134 12.1344 10 16.0004 10C19.8664 10 23.0004 13.134 23.0004 17ZM25.0004 17C25.0004 21.9706 20.971 26 16.0004 26C11.0298 26 7.00039 21.9706 7.00039 17C7.00039 12.0294 11.0298 8.00001 16.0004 8.00001C20.971 8.00001 25.0004 12.0294 25.0004 17ZM15.0004 12V16.9998C15.0004 17.2749 15.1114 17.5242 15.2912 17.705L15.0004 16.9998L15.2937 17.7075L18.2933 20.7071L19.7075 19.2929L17.0004 16.5858V12H15.0004ZM21.6004 6.20001L25.6004 9.20001L24.4004 10.8L20.4004 7.80001L21.6004 6.20001Z" fill="#333333"/>
</svg>
