<svg width="32" height="32" viewBox="0 0 32 32" fill="none" xmlns="http://www.w3.org/2000/svg">
<path fill-rule="evenodd" clip-rule="evenodd" d="M6.40039 9.19995L10.4004 6.19995L11.6004 7.79995L7.60039 10.8L6.40039 9.19995ZM16.0004 26C20.971 26 25.0004 21.9705 25.0004 17C25.0004 12.0294 20.971 7.99995 16.0004 7.99995C11.0298 7.99995 7.00039 12.0294 7.00039 17C7.00039 21.9705 11.0298 26 16.0004 26ZM15.0004 12V16.9998C15.0004 17.2748 15.1114 17.5241 15.2912 17.7049L15.0004 16.9998L15.2937 17.7075L18.2933 20.7071L19.7075 19.2928L17.0004 16.5857V12H15.0004ZM21.6004 6.19995L25.6004 9.19995L24.4004 10.8L20.4004 7.79995L21.6004 6.19995Z" fill="#2371EE"/>
</svg>
