<svg width="24" height="24" viewBox="0 0 24 24" fill="none" xmlns="http://www.w3.org/2000/svg">
<path fill-rule="evenodd" clip-rule="evenodd" d="M2.40039 5.19995L6.40039 2.19995L7.60039 3.79995L3.60039 6.79995L2.40039 5.19995ZM12.0004 22C16.971 22 21.0004 17.9705 21.0004 13C21.0004 8.02939 16.971 3.99995 12.0004 3.99995C7.02983 3.99995 3.00039 8.02939 3.00039 13C3.00039 17.9705 7.02983 22 12.0004 22ZM11.0004 7.99995V12.9998C11.0004 13.2748 11.1114 13.5241 11.2912 13.7049L11.0004 12.9998L11.2937 13.7075L14.2933 16.7071L15.7075 15.2928L13.0004 12.5857V7.99995H11.0004ZM17.6004 2.19995L21.6004 5.19995L20.4004 6.79995L16.4004 3.79995L17.6004 2.19995Z" fill="#2371EE"/>
</svg>
