<svg width="24" height="24" viewBox="0 0 24 24" fill="none" xmlns="http://www.w3.org/2000/svg">
<path fill-rule="evenodd" clip-rule="evenodd" d="M2.40039 5.20001L6.40039 2.20001L7.60039 3.80001L3.60039 6.80001L2.40039 5.20001ZM19.0004 13C19.0004 16.866 15.8664 20 12.0004 20C8.1344 20 5.00039 16.866 5.00039 13C5.00039 9.13402 8.1344 6.00001 12.0004 6.00001C15.8664 6.00001 19.0004 9.13402 19.0004 13ZM21.0004 13C21.0004 17.9706 16.971 22 12.0004 22C7.02983 22 3.00039 17.9706 3.00039 13C3.00039 8.02945 7.02983 4.00001 12.0004 4.00001C16.971 4.00001 21.0004 8.02945 21.0004 13ZM11.0004 8.00001V12.9998C11.0004 13.2749 11.1114 13.5242 11.2912 13.705L11.0004 12.9998L11.2937 13.7075L14.2933 16.7071L15.7075 15.2929L13.0004 12.5858V8.00001H11.0004ZM17.6004 2.20001L21.6004 5.20001L20.4004 6.80001L16.4004 3.80001L17.6004 2.20001Z" fill="#333333"/>
</svg>
