<svg width="32" height="32" viewBox="0 0 32 32" fill="none" xmlns="http://www.w3.org/2000/svg">
<path fill-rule="evenodd" clip-rule="evenodd" d="M11.2079 22.906L24.5363 9.57755C25.4215 8.69236 25.4215 7.25719 24.5363 6.372C23.6511 5.48681 22.2159 5.48681 21.3307 6.37199L8.00232 19.7004L5.94804 24.9602L11.2079 22.906ZM26.2333 4.67494C24.4109 2.8525 21.4561 2.85249 19.6337 4.67494L6.14724 18.1614C6.01696 18.2916 5.9151 18.4475 5.84807 18.6191L2.82707 26.3542C2.40438 27.4364 3.47185 28.5039 4.55411 28.0812L12.2892 25.0602C12.4608 24.9932 12.6166 24.8913 12.7469 24.761L26.2333 11.2746C28.0558 9.45216 28.0558 6.49739 26.2333 4.67494ZM21.4666 25.3335H17.3332V22.9335H21.4666V18.6668H23.8666V22.9335H27.9999V25.3335H23.8666V29.3335L21.4666 29.3335V25.3335Z" fill="white"/>
</svg>
