<svg width="10" height="10" viewBox="0 0 10 10" fill="none" xmlns="http://www.w3.org/2000/svg">
<path fill-rule="evenodd" clip-rule="evenodd" d="M5.00648 0.416687C5.37539 0.416685 5.7004 0.65924 5.80537 1.0129L6.47035 3.25331H8.75001C9.10588 3.25331 9.42248 3.47929 9.53812 3.81585C9.65376 4.15241 9.54292 4.52527 9.2622 4.74399L7.42541 6.17515L8.0702 8.52994C8.16495 8.87595 8.02762 9.24376 7.72929 9.44301C7.43097 9.64225 7.0386 9.62821 6.75528 9.40815L5.00328 8.04737L3.22505 9.41125C2.93752 9.63179 2.54042 9.64123 2.24273 9.43461C1.94503 9.22799 1.81499 8.85267 1.92104 8.50616L2.63488 6.17359L0.748515 4.75218C0.462321 4.53653 0.346038 4.16206 0.45974 3.82223C0.573441 3.4824 0.891665 3.25331 1.25001 3.25331H3.54264L4.2076 1.01291C4.31257 0.659247 4.63757 0.416689 5.00648 0.416687ZM4.16457 4.08664H1.25001L3.60254 5.85931L2.71789 8.75002L5.00649 6.99468L7.26646 8.75002L6.47492 5.85931L8.75001 4.08664H5.84843L5.00649 1.25002L4.16457 4.08664Z" fill="#191919"/>
</svg>
